<svg xmlns="http://www.w3.org/2000/svg" version="1.1" xmlns:xlink="http://www.w3.org/1999/xlink" width="700" height="270"><svg xmlns="http://www.w3.org/2000/svg" version="1.1" xmlns:xlink="http://www.w3.org/1999/xlink" width="700" height="270"><svg width="700" height="270" viewBox="0 0 700 270" fill="none" xmlns="http://www.w3.org/2000/svg">
<mask id="mask0_780_2436" style="mask-type:alpha" maskUnits="userSpaceOnUse" x="62" y="48" width="171" height="173">
<ellipse cx="147.195" cy="134.773" rx="86.0856" ry="84.9963" transform="rotate(-82.208 147.195 134.773)" fill="#D9D9D9"></ellipse>
</mask>
<g mask="url(#mask0_780_2436)">
<path d="M199.008 46.4157C173.12 36.1145 144.352 36.1382 119.032 46.4816C93.7128 56.8249 73.9156 76.6407 63.9959 101.57C54.0762 126.499 54.8467 154.499 66.1378 179.41C77.4289 204.321 98.3158 224.104 124.204 234.405L130.086 219.623C108.269 210.942 90.6671 194.27 81.1517 173.277C71.6363 152.283 70.987 128.686 79.3466 107.678C87.7063 86.6695 104.39 69.9701 125.728 61.2534C147.065 52.5367 171.309 52.5167 193.126 61.1979L199.008 46.4157Z" fill="#24538A"></path>
</g>
<mask id="mask1_780_2436" style="mask-type:alpha" maskUnits="userSpaceOnUse" x="77" y="59" width="151" height="152">
<ellipse cx="152.336" cy="134.594" rx="75.616" ry="74.6592" transform="rotate(-103.907 152.336 134.594)" fill="#D9D9D9"></ellipse>
</mask>
<g mask="url(#mask1_780_2436)">
<path d="M165.933 45.6545C141.46 45.6545 117.989 55.0164 100.684 71.6808C83.3783 88.3452 73.6563 110.947 73.6563 134.514C73.6562 158.081 83.3783 180.683 100.684 197.347C117.989 214.012 141.46 223.374 165.933 223.374V209.399C145.309 209.399 125.529 201.509 110.945 187.466C96.3614 173.422 88.1684 154.375 88.1684 134.514C88.1684 114.653 96.3615 95.606 110.945 81.5624C125.529 67.5187 145.309 59.6291 165.933 59.6291V45.6545Z" fill="#3674B5"></path>
</g>
<path d="M223.23 178.212L200.502 152.63V178.212H190.882V99.9847H200.502V145.97L222.807 120.282H236.233L208.959 149.141L236.339 178.212H223.23ZM250.255 110.873C248.423 110.873 246.873 110.239 245.604 108.97C244.336 107.702 243.701 106.151 243.701 104.319C243.701 102.487 244.336 100.936 245.604 99.6676C246.873 98.399 248.423 97.7647 250.255 97.7647C252.017 97.7647 253.497 98.399 254.695 99.6676C255.964 100.936 256.598 102.487 256.598 104.319C256.598 106.151 255.964 107.702 254.695 108.97C253.497 110.239 252.017 110.873 250.255 110.873ZM254.907 120.282V178.212H245.287V120.282H254.907ZM280.922 99.9847V178.212H271.302V99.9847H280.922ZM306.937 99.9847V178.212H297.318V99.9847H306.937Z" fill="#3674B5"></path>
<path d="M384.223 104.53L356.421 178.212H345.321L317.519 104.53H327.773L350.924 168.064L374.075 104.53H384.223ZM447.628 147.027C447.628 148.859 447.522 150.797 447.311 152.841H401.009C401.361 158.55 403.299 163.025 406.823 166.267C410.417 169.438 414.751 171.024 419.825 171.024C423.983 171.024 427.437 170.072 430.185 168.169C433.004 166.196 434.978 163.589 436.105 160.347H446.465C444.915 165.914 441.814 170.46 437.162 173.984C432.511 177.437 426.732 179.164 419.825 179.164C414.328 179.164 409.395 177.93 405.026 175.464C400.727 172.997 397.344 169.508 394.877 164.998C392.411 160.417 391.177 155.132 391.177 149.141C391.177 143.151 392.375 137.9 394.771 133.39C397.168 128.88 400.515 125.426 404.814 123.03C409.184 120.563 414.187 119.33 419.825 119.33C425.322 119.33 430.185 120.528 434.414 122.924C438.642 125.321 441.884 128.633 444.139 132.861C446.465 137.019 447.628 141.741 447.628 147.027ZM437.691 145.018C437.691 141.354 436.88 138.217 435.259 135.61C433.639 132.932 431.419 130.923 428.6 129.584C425.851 128.175 422.785 127.47 419.403 127.47C414.54 127.47 410.382 129.02 406.928 132.121C403.546 135.222 401.608 139.521 401.114 145.018H437.691ZM456.732 149.035C456.732 143.116 457.93 137.936 460.326 133.496C462.722 128.985 465.999 125.497 470.157 123.03C474.386 120.563 479.107 119.33 484.323 119.33C488.833 119.33 493.026 120.387 496.902 122.502C500.779 124.545 503.739 127.259 505.782 130.641V99.9847H515.508V178.212H505.782V167.324C503.879 170.777 501.06 173.631 497.325 175.886C493.59 178.071 489.221 179.164 484.217 179.164C479.072 179.164 474.386 177.895 470.157 175.358C465.999 172.821 462.722 169.262 460.326 164.681C457.93 160.1 456.732 154.885 456.732 149.035ZM505.782 149.141C505.782 144.772 504.901 140.966 503.139 137.724C501.378 134.482 498.981 132.016 495.951 130.324C492.991 128.562 489.714 127.681 486.12 127.681C482.525 127.681 479.248 128.527 476.288 130.219C473.328 131.91 470.968 134.377 469.206 137.618C467.444 140.86 466.563 144.666 466.563 149.035C466.563 153.475 467.444 157.351 469.206 160.664C470.968 163.906 473.328 166.408 476.288 168.169C479.248 169.861 482.525 170.707 486.12 170.707C489.714 170.707 492.991 169.861 495.951 168.169C498.981 166.408 501.378 163.906 503.139 160.664C504.901 157.351 505.782 153.511 505.782 149.141ZM536.733 110.873C534.901 110.873 533.35 110.239 532.082 108.97C530.813 107.702 530.179 106.151 530.179 104.319C530.179 102.487 530.813 100.936 532.082 99.6676C533.35 98.399 534.901 97.7647 536.733 97.7647C538.495 97.7647 539.975 98.399 541.173 99.6676C542.442 100.936 543.076 102.487 543.076 104.319C543.076 106.151 542.442 107.702 541.173 108.97C539.975 110.239 538.495 110.873 536.733 110.873ZM541.384 120.282V178.212H531.765V120.282H541.384ZM590.128 178.212L567.4 152.63V178.212H557.78V99.9847H567.4V145.97L589.705 120.282H603.131L575.857 149.141L603.236 178.212H590.128ZM608.59 149.035C608.59 143.116 609.789 137.936 612.185 133.496C614.581 128.985 617.858 125.497 622.016 123.03C626.245 120.563 630.931 119.33 636.076 119.33C641.15 119.33 645.555 120.422 649.29 122.607C653.025 124.792 655.809 127.54 657.641 130.853V120.282H667.367V178.212H657.641V167.429C655.738 170.812 652.884 173.631 649.078 175.886C645.343 178.071 640.974 179.164 635.97 179.164C630.825 179.164 626.174 177.895 622.016 175.358C617.858 172.821 614.581 169.262 612.185 164.681C609.789 160.1 608.59 154.885 608.59 149.035ZM657.641 149.141C657.641 144.772 656.76 140.966 654.998 137.724C653.237 134.482 650.84 132.016 647.81 130.324C644.85 128.562 641.573 127.681 637.979 127.681C634.384 127.681 631.107 128.527 628.147 130.219C625.187 131.91 622.826 134.377 621.065 137.618C619.303 140.86 618.422 144.666 618.422 149.035C618.422 153.475 619.303 157.351 621.065 160.664C622.826 163.906 625.187 166.408 628.147 168.169C631.107 169.861 634.384 170.707 637.979 170.707C641.573 170.707 644.85 169.861 647.81 168.169C650.84 166.408 653.237 163.906 654.998 160.664C656.76 157.351 657.641 153.511 657.641 149.141Z" fill="#24538A"></path>
<mask id="mask2_780_2436" style="mask-type:alpha" maskUnits="userSpaceOnUse" x="137" y="102" width="30" height="30">
<ellipse cx="14.3348" cy="14.1534" rx="14.3348" ry="14.1534" transform="matrix(-0.777224 0.629224 0.629224 0.777224 154.477 97.1306)" fill="#D9D9D9"></ellipse>
</mask>
<g mask="url(#mask2_780_2436)">
<path d="M144.564 131.34C141.064 128.693 138.72 124.815 138.048 120.56C137.375 116.305 138.429 112.021 140.978 108.65C143.528 105.28 147.363 103.099 151.64 102.588C155.917 102.076 160.287 103.276 163.787 105.923L162.275 107.922C159.326 105.691 155.644 104.68 152.039 105.111C148.434 105.542 145.202 107.38 143.054 110.22C140.906 113.06 140.017 116.671 140.584 120.257C141.151 123.842 143.126 127.11 146.076 129.341L144.564 131.34Z" fill="#24538A"></path>
</g>
<mask id="mask3_780_2436" style="mask-type:alpha" maskUnits="userSpaceOnUse" x="143" y="146" width="29" height="29">
<ellipse cx="14.3348" cy="14.1534" rx="14.3348" ry="14.1534" transform="matrix(0.777224 -0.629224 -0.629224 -0.777224 155.404 180.386)" fill="#D9D9D9"></ellipse>
</mask>
<g mask="url(#mask3_780_2436)">
<path d="M165.319 146.177C168.819 148.825 171.163 152.702 171.835 156.957C172.508 161.212 171.453 165.496 168.904 168.867C166.355 172.237 162.52 174.418 158.243 174.929C153.965 175.441 149.596 174.241 146.096 171.594L147.607 169.595C150.557 171.826 154.239 172.837 157.844 172.406C161.449 171.975 164.681 170.137 166.829 167.297C168.977 164.457 169.866 160.846 169.299 157.261C168.732 153.675 166.757 150.407 163.807 148.176L165.319 146.177Z" fill="#3674B5"></path>
</g>
<mask id="mask4_780_2436" style="mask-type:alpha" maskUnits="userSpaceOnUse" x="127" y="96" width="57" height="87">
<path d="M156.296 182.341C150.758 182.341 145.863 181.378 141.61 179.452C137.437 177.526 134.147 174.838 131.739 171.387C129.332 167.936 128.048 164.084 127.887 159.831H136.795C137.196 163.924 139.002 167.535 142.212 170.665C145.422 173.714 150.116 175.239 156.296 175.239C161.993 175.239 166.487 173.794 169.777 170.905C173.148 167.936 174.833 164.205 174.833 159.711C174.833 156.099 173.91 153.21 172.065 151.044C170.219 148.797 167.932 147.152 165.203 146.108C162.475 144.985 158.703 143.781 153.888 142.497C148.271 140.972 143.817 139.488 140.527 138.043C137.236 136.599 134.428 134.352 132.1 131.302C129.773 128.253 128.61 124.12 128.61 118.904C128.61 114.571 129.733 110.719 131.98 107.348C134.227 103.897 137.397 101.209 141.49 99.2831C145.582 97.3571 150.277 96.3941 155.573 96.3941C163.358 96.3941 169.617 98.3201 174.352 102.172C179.167 105.944 181.935 110.839 182.657 116.858H173.509C172.947 113.407 171.061 110.357 167.851 107.709C164.642 104.981 160.308 103.617 154.851 103.617C149.795 103.617 145.582 104.981 142.212 107.709C138.841 110.357 137.156 114.009 137.156 118.663C137.156 122.194 138.079 125.043 139.925 127.21C141.771 129.376 144.058 131.022 146.786 132.145C149.595 133.269 153.367 134.472 158.101 135.756C163.558 137.281 167.972 138.806 171.342 140.33C174.713 141.775 177.562 144.022 179.889 147.071C182.216 150.121 183.38 154.214 183.38 159.35C183.38 163.282 182.336 167.013 180.25 170.544C178.163 174.075 175.074 176.924 170.981 179.091C166.888 181.258 161.993 182.341 156.296 182.341Z" fill="#3F51B5"></path>
</mask>
<g mask="url(#mask4_780_2436)">
<rect x="128.088" y="139.276" width="61.7301" height="45.526" fill="#3674B5"></rect>
</g>
<mask id="mask5_780_2436" style="mask-type:alpha" maskUnits="userSpaceOnUse" x="126" y="94" width="57" height="87">
<path d="M153.896 94.6664C159.433 94.6664 164.328 95.6294 168.581 97.5554C172.754 99.4814 176.045 102.17 178.452 105.62C180.86 109.071 182.143 112.923 182.304 117.176H173.396C172.995 113.084 171.189 109.472 167.98 106.343C164.77 103.293 160.075 101.768 153.896 101.768C148.198 101.768 143.704 103.213 140.414 106.102C137.043 109.071 135.358 112.803 135.358 117.297C135.358 120.908 136.281 123.797 138.127 125.964C139.973 128.211 142.26 129.856 144.988 130.899C147.717 132.022 151.488 133.226 156.303 134.51C161.921 136.035 166.375 137.519 169.665 138.964C172.955 140.408 175.764 142.655 178.091 145.705C180.418 148.754 181.582 152.887 181.582 158.103C181.582 162.437 180.458 166.289 178.211 169.659C175.964 173.11 172.794 175.798 168.702 177.724C164.609 179.65 159.914 180.613 154.618 180.613C146.834 180.613 140.574 178.687 135.84 174.835C131.025 171.064 128.256 166.168 127.534 160.15H136.682C137.244 163.6 139.13 166.65 142.34 169.298C145.55 172.027 149.883 173.391 155.34 173.391C160.396 173.391 164.609 172.027 167.98 169.298C171.35 166.65 173.035 162.999 173.035 158.344C173.035 154.813 172.112 151.964 170.267 149.798C168.421 147.631 166.134 145.986 163.405 144.862C160.597 143.739 156.825 142.535 152.09 141.251C146.633 139.726 142.22 138.202 138.849 136.677C135.479 135.232 132.63 132.985 130.303 129.936C127.975 126.886 126.812 122.794 126.812 117.658C126.812 113.726 127.855 109.994 129.941 106.463C132.028 102.932 135.118 100.083 139.21 97.9165C143.303 95.7498 148.198 94.6664 153.896 94.6664Z" fill="#3F51B5"></path>
</mask>
<g mask="url(#mask5_780_2436)">
<rect x="182.105" y="137.731" width="61.7301" height="45.526" transform="rotate(180 182.105 137.731)" fill="#24538A"></rect>
</g>
<path d="M93.1889 10.4959L33.4141 68.4007L64.1423 72.0063L70.9768 83.9667C97.0206 51.9367 117.627 43.2044 163.242 41.2511L159.825 30.9993L178.62 7.07861L93.1889 10.4959Z" fill="#3674B5" stroke="#3674B5" stroke-width="3.41725"></path>
<path d="M31.6738 69.5586V118.14" stroke="#3674B5" stroke-width="3.41725"></path>
<circle cx="31.6761" cy="120.467" r="3.47106" fill="#24538A"></circle>
</svg></svg><style>@media (prefers-color-scheme: light) { :root { filter: none; } }
@media (prefers-color-scheme: dark) { :root { filter: none; } }
</style></svg>