<svg width="32" height="32" viewBox="0 0 700 270" fill="none" xmlns="http://www.w3.org/2000/svg">
<mask id="mask0_780_2436" style="mask-type:alpha" maskUnits="userSpaceOnUse" x="62" y="48" width="171" height="173">
<ellipse cx="147.195" cy="134.773" rx="86.0856" ry="84.9963" transform="rotate(-82.208 147.195 134.773)" fill="#D9D9D9"/>
</mask>
<g mask="url(#mask0_780_2436)">
<path d="M199.008 46.4157C173.12 36.1145 144.352 36.1382 119.032 46.4816C93.7128 56.8249 73.9156 76.6407 63.9959 101.57C54.0762 126.499 54.8467 154.499 66.1378 179.41C77.4289 204.321 98.3158 224.104 124.204 234.405L130.086 219.623C108.269 210.942 90.6671 194.27 81.1517 173.277C71.6363 152.283 70.987 128.686 79.3466 107.678C87.7063 86.6695 104.39 69.9701 125.728 61.2534C147.065 52.5367 171.309 52.5167 193.126 61.1979L199.008 46.4157Z" fill="#24538A"/>
</g>
<mask id="mask1_780_2436" style="mask-type:alpha" maskUnits="userSpaceOnUse" x="77" y="59" width="151" height="152">
<ellipse cx="152.336" cy="134.594" rx="75.616" ry="74.6592" transform="rotate(-103.907 152.336 134.594)" fill="#D9D9D9"/>
</mask>
<g mask="url(#mask1_780_2436)">
<path d="M165.933 45.6545C141.46 45.6545 117.989 55.0164 100.684 71.6808C83.3783 88.3452 73.6563 110.947 73.6563 134.514C73.6562 158.081 83.3783 180.683 100.684 197.347C117.989 214.012 141.46 223.374 165.933 223.374V209.399C145.309 209.399 125.529 201.509 110.945 187.466C96.3614 173.422 88.1684 154.375 88.1684 134.514C88.1684 114.653 96.3615 95.606 110.945 81.5624C125.529 67.5187 145.309 59.6291 165.933 59.6291V45.6545Z" fill="#3674B5"/>
</g>
<mask id="mask2_780_2436" style="mask-type:alpha" maskUnits="userSpaceOnUse" x="137" y="102" width="30" height="30">
<ellipse cx="14.3348" cy="14.1534" rx="14.3348" ry="14.1534" transform="matrix(-0.777224 0.629224 0.629224 0.777224 154.477 97.1306)" fill="#D9D9D9"/>
</mask>
<g mask="url(#mask2_780_2436)">
<path d="M144.564 131.34C141.064 128.693 138.72 124.815 138.048 120.56C137.375 116.305 138.429 112.021 140.978 108.65C143.528 105.28 147.363 103.099 151.64 102.588C155.917 102.076 160.287 103.276 163.787 105.923L162.275 107.922C159.326 105.691 155.644 104.68 152.039 105.111C148.434 105.542 145.202 107.38 143.054 110.22C140.906 113.06 140.017 116.671 140.584 120.257C141.151 123.842 143.126 127.11 146.076 129.341L144.564 131.34Z" fill="#24538A"/>
</g>
<mask id="mask3_780_2436" style="mask-type:alpha" maskUnits="userSpaceOnUse" x="143" y="146" width="29" height="29">
<ellipse cx="14.3348" cy="14.1534" rx="14.3348" ry="14.1534" transform="matrix(0.777224 -0.629224 -0.629224 -0.777224 155.404 180.386)" fill="#D9D9D9"/>
</mask>
<g mask="url(#mask3_780_2436)">
<path d="M165.319 146.177C168.819 148.825 171.163 152.702 171.835 156.957C172.508 161.212 171.453 165.496 168.904 168.867C166.355 172.237 162.52 174.418 158.243 174.929C153.965 175.441 149.596 174.241 146.096 171.594L147.607 169.595C150.557 171.826 154.239 172.837 157.844 172.406C161.449 171.975 164.681 170.137 166.829 167.297C168.977 164.457 169.866 160.846 169.299 157.261C168.732 153.675 166.757 150.407 163.807 148.176L165.319 146.177Z" fill="#3674B5"/>
</g>
<mask id="mask4_780_2436" style="mask-type:alpha" maskUnits="userSpaceOnUse" x="127" y="96" width="57" height="87">
<path d="M156.296 182.341C150.758 182.341 145.863 181.378 141.61 179.452C137.437 177.526 134.147 174.838 131.739 171.387C129.332 167.936 128.048 164.084 127.887 159.831H136.795C137.196 163.924 139.002 167.535 142.212 170.665C145.422 173.714 150.116 175.239 156.296 175.239C161.993 175.239 166.487 173.794 169.777 170.905C173.148 167.936 174.833 164.205 174.833 159.711C174.833 156.099 173.91 153.21 172.065 151.044C170.219 148.797 167.932 147.152 165.203 146.108C162.475 144.985 158.703 143.781 153.888 142.497C148.271 140.972 143.817 139.488 140.527 138.043C137.236 136.599 134.428 134.352 132.1 131.302C129.773 128.253 128.61 124.12 128.61 118.904C128.61 114.571 129.733 110.719 131.98 107.348C134.227 103.897 137.397 101.209 141.49 99.2831C145.582 97.3571 150.277 96.3941 155.573 96.3941C163.358 96.3941 169.617 98.3201 174.352 102.172C179.167 105.944 181.935 110.839 182.657 116.858H173.509C172.947 113.407 171.061 110.357 167.851 107.709C164.642 104.981 160.308 103.617 154.851 103.617C149.795 103.617 145.582 104.981 142.212 107.709C138.841 110.357 137.156 114.009 137.156 118.663C137.156 122.194 138.079 125.043 139.925 127.21C141.771 129.376 144.058 131.022 146.786 132.145C149.595 133.269 153.367 134.472 158.101 135.756C163.558 137.281 167.972 138.806 171.342 140.33C174.713 141.775 177.562 144.022 179.889 147.071C182.216 150.121 183.38 154.214 183.38 159.35C183.38 163.282 182.336 167.013 180.25 170.544C178.163 174.075 175.074 176.924 170.981 179.091C166.888 181.258 161.993 182.341 156.296 182.341Z" fill="#3F51B5"/>
</mask>
<g mask="url(#mask4_780_2436)">
<rect x="128.088" y="139.276" width="61.7301" height="45.526" fill="#3674B5"/>
</g>
<mask id="mask5_780_2436" style="mask-type:alpha" maskUnits="userSpaceOnUse" x="126" y="94" width="57" height="87">
<path d="M153.896 94.6664C159.433 94.6664 164.328 95.6294 168.581 97.5554C172.754 99.4814 176.045 102.17 178.452 105.62C180.86 109.071 182.143 112.923 182.304 117.176H173.396C172.995 113.084 171.189 109.472 167.98 106.343C164.77 103.293 160.075 101.768 153.896 101.768C148.198 101.768 143.704 103.213 140.414 106.102C137.043 109.071 135.358 112.803 135.358 117.297C135.358 120.908 136.281 123.797 138.127 125.964C139.973 128.211 142.26 129.856 144.988 130.899C147.717 132.022 151.488 133.226 156.303 134.51C161.921 136.035 166.375 137.519 169.665 138.964C172.955 140.408 175.764 142.655 178.091 145.705C180.418 148.754 181.582 152.887 181.582 158.103C181.582 162.437 180.458 166.289 178.211 169.659C175.964 173.11 172.794 175.798 168.702 177.724C164.609 179.65 159.914 180.613 154.618 180.613C146.834 180.613 140.574 178.687 135.84 174.835C131.025 171.064 128.256 166.168 127.534 160.15H136.682C137.244 163.6 139.13 166.65 142.34 169.298C145.55 172.027 149.883 173.391 155.34 173.391C160.396 173.391 164.609 172.027 167.98 169.298C171.35 166.65 173.035 162.999 173.035 158.344C173.035 154.813 172.112 151.964 170.267 149.798C168.421 147.631 166.134 145.986 163.405 144.862C160.597 143.739 156.825 142.535 152.09 141.251C146.633 139.726 142.22 138.202 138.849 136.677C135.479 135.232 132.63 132.985 130.303 129.936C127.975 126.886 126.812 122.794 126.812 117.658C126.812 113.726 127.855 109.994 129.941 106.463C132.028 102.932 135.118 100.083 139.21 97.9165C143.303 95.7498 148.198 94.6664 153.896 94.6664Z" fill="#3F51B5"/>
</mask>
<g mask="url(#mask5_780_2436)">
<rect x="182.105" y="137.731" width="61.7301" height="45.526" transform="rotate(180 182.105 137.731)" fill="#24538A"/>
</g>
<path d="M93.1889 10.4959L33.4141 68.4007L64.1423 72.0063L70.9768 83.9667C97.0206 51.9367 117.627 43.2044 163.242 41.2511L159.825 30.9993L178.62 7.07861L93.1889 10.4959Z" fill="#3674B5" stroke="#3674B5" stroke-width="3.41725"/>
<path d="M31.6738 69.5586V118.14" stroke="#3674B5" stroke-width="3.41725"/>
<circle cx="31.6761" cy="120.467" r="3.47106" fill="#24538A"/>
</svg>
